<svg width="150" height="150" viewBox="0 0 150 150" fill="none" xmlns="http://www.w3.org/2000/svg">
<path d="M25 115.625L72.6062 26.3626C73.6094 24.4814 76.3219 24.5158 77.275 26.4251L93.75 59.3751L25 115.625Z" fill="#FF8F00"/>
<path d="M25 115.6L42.3312 8.72801C42.7844 5.93114 46.5406 5.32489 47.8531 7.83739L81.25 71.8499L25 115.6Z" fill="#FFA000"/>
<path d="M25.0249 115.581L25.6499 115.091L80.428 70.2751L64.978 40.6626L25.0249 115.581Z" fill="#FF6F00"/>
<path d="M25 115.625L108.331 35.2719C110.078 33.5876 112.994 34.5813 113.35 36.9813L125 115.625L78.125 142.947C76.2219 144.016 73.9 144.016 71.9969 142.947L25 115.625Z" fill="#FFC400"/>
</svg>
