<svg width="150" height="150" viewBox="0 0 150 150" fill="none" xmlns="http://www.w3.org/2000/svg">
<g clip-path="url(#clip0_20_147)">
<path d="M140.609 73.7827C140.609 66.0792 133.705 59.8343 125.189 59.8343C124.642 59.8343 124.101 59.8608 123.569 59.9112L144.747 3.40674H54.7451L75.8939 59.8624C75.5839 59.8454 75.2722 59.8343 74.957 59.8343C66.441 59.8343 59.5374 66.0792 59.5374 73.7827C59.5374 80.0096 64.0486 85.2813 70.2753 87.0749C66.9865 92.228 62.8486 96.8689 58.1505 100.878C51.762 106.33 44.4507 110.464 36.5435 113.011C27.1286 108.636 22.6826 98.9059 26.6945 90.3749C27.1474 89.4119 27.6097 88.435 28.0521 87.4629C34.8724 86.0228 39.9548 80.4914 39.9548 73.8829C39.9548 66.1794 33.0513 59.9345 24.5353 59.9345C16.0187 59.9345 9.11517 66.1794 9.11517 73.8829C9.11517 78.6071 11.7138 82.779 15.6853 85.3025C11.8685 93.1635 6.25872 101.39 4.51087 110.924C2.41615 122.351 4.50443 134.48 15.4292 141.33C40.873 157.282 68.4917 131.441 97.6122 124.945C108.166 122.59 119.75 122.97 129.048 118.098C136.031 114.44 140.634 108.378 141.941 101.571C143.231 94.8469 141.35 88.152 137.023 82.7234C139.261 80.3021 140.609 77.1855 140.609 73.7827ZM90.3753 73.832C90.3753 73.8156 90.3771 73.7991 90.3771 73.7827C90.3771 68.7241 87.3993 64.294 82.9439 61.849L99.7767 31.0587L116.639 62.1755C112.498 64.6762 109.769 68.9408 109.769 73.7827C109.769 73.8845 109.776 73.9847 109.778 74.0859L90.3753 73.832Z" fill="#C63D14"/>
<path d="M144.374 73.7825C144.374 65.3099 137.626 58.2403 128.737 56.7302L150 0H49.4918L70.7871 56.8452C62.2072 58.5726 55.7713 65.5087 55.7713 73.7825C55.7713 79.9961 59.4012 85.4539 64.8416 88.5207C62.2248 92.047 59.1217 95.3656 55.5656 98.4C49.9266 103.213 43.6436 106.863 36.8701 109.264C30.0481 105.387 27.1641 98.0767 30.1594 91.7078L30.3938 91.2095C30.5403 90.8979 30.6873 90.5852 30.8338 90.2724C38.3268 87.909 43.7203 81.4569 43.7203 73.8827C43.7203 64.3129 35.1135 56.5277 24.5344 56.5277C13.9553 56.5277 5.34904 64.3129 5.34904 73.8827C5.34904 78.7129 7.54338 83.0868 11.0754 86.2362C10.435 87.4712 9.76174 88.7263 9.06975 90.0122C5.84006 96.0127 2.17971 102.814 0.795138 110.367C-1.95467 125.366 2.48029 137.357 13.2832 144.129C19.8387 148.239 26.4955 149.856 33.1946 149.855C45.8092 149.855 58.5692 144.122 71.0496 138.515C80.0385 134.476 89.3326 130.3 98.5137 128.252C101.93 127.49 105.445 127.031 109.166 126.546C116.545 125.583 124.177 124.587 130.936 121.046C138.771 116.941 144.134 110.055 145.651 102.154C146.953 95.3708 145.385 88.5779 141.564 82.8164C143.346 80.1832 144.374 77.0899 144.374 73.7825ZM136.843 73.7825C136.843 79.5954 131.615 84.3249 125.188 84.3249C118.763 84.3249 113.535 79.5954 113.535 73.7825C113.535 67.9696 118.763 63.2406 125.188 63.2406C131.615 63.2406 136.843 67.9696 136.843 73.7825ZM139.494 6.81307L120.717 56.9083C119.903 57.0848 119.11 57.3074 118.339 57.5751L99.791 23.3465L81.1887 57.3726C80.3848 57.1219 79.5574 56.9157 78.709 56.7631L59.9971 6.81307H139.494ZM74.9567 63.2406C81.3826 63.2406 86.6104 67.9696 86.6104 73.7825C86.6104 79.5954 81.3826 84.3249 74.9567 84.3249C68.5313 84.3249 63.3029 79.5954 63.3029 73.7825C63.3029 67.9696 68.5313 63.2406 74.9567 63.2406ZM24.5344 63.3408C30.961 63.3408 36.1887 68.0698 36.1887 73.8827C36.1887 79.6956 30.961 84.4251 24.5344 84.4251C18.109 84.4251 12.8807 79.6956 12.8807 73.8827C12.8807 68.0698 18.109 63.3408 24.5344 63.3408ZM138.23 100.988C137.096 106.897 133.061 112.059 127.161 115.15C121.661 118.032 115.069 118.892 108.091 119.802C104.353 120.29 100.487 120.795 96.7102 121.637C86.7246 123.864 77.0526 128.21 67.6992 132.413C48.9815 140.823 32.816 148.086 17.574 138.53C6.40901 131.53 6.92463 118.578 8.22541 111.481C9.43069 104.906 12.6897 98.8505 15.8414 92.9942C16.3869 91.9808 16.9166 90.988 17.4363 90.0016C18.9996 90.5671 20.6619 90.9525 22.3946 91.1274C19.1865 100.706 24.2321 111.12 34.8217 116.041L36.2707 116.715L37.8059 116.22C46.1778 113.524 53.8916 109.195 60.7342 103.356C65.1574 99.5815 68.9584 95.4053 72.0838 90.9429C73.0213 91.0707 73.9805 91.138 74.9567 91.138C85.5358 91.138 94.1426 83.3528 94.1426 73.7825C94.1426 68.6359 91.6506 64.0076 87.7037 60.8263L99.7612 38.7705L111.941 61.2467C108.287 64.4088 106.003 68.8574 106.003 73.7825C106.003 83.3528 114.609 91.138 125.188 91.138C129.253 91.138 133.024 89.9857 136.129 88.0277C138.285 92.0205 139.089 96.5131 138.23 100.988Z" fill="white"/>
</g>
<defs>
<clipPath id="clip0_20_147">
<rect width="150" height="150" fill="white"/>
</clipPath>
</defs>
</svg>
