<svg width="211" height="211" viewBox="0 0 211 211" fill="none" xmlns="http://www.w3.org/2000/svg">
<path d="M136.154 140.77C136.576 140.796 137.031 140.849 137.486 140.849C143.928 140.856 150.377 140.816 156.819 140.882C158.23 140.895 158.652 140.414 158.58 139.062C158.487 137.302 158.56 135.535 158.56 133.359C165.872 138.739 172.941 143.935 180.194 149.276C172.994 154.577 165.925 159.78 158.56 165.206C158.56 163.156 158.56 161.461 158.56 159.767C158.56 157.577 158.56 157.571 156.43 157.571C115.239 157.571 74.0412 157.571 32.85 157.571C30.8587 157.571 30.8587 157.571 30.8587 155.566C30.8587 151.221 30.9181 146.876 30.8258 142.537C30.7928 141.126 31.2477 140.81 32.5995 140.816C54.7479 140.856 76.8963 140.889 99.0447 140.829C110.399 140.796 119.36 136.095 125.288 126.31C135.983 108.639 124.833 85.4946 104.339 82.5142C88.5145 80.213 73.8038 90.8355 71.1202 106.931C70.8366 108.606 70.8168 110.327 70.652 112.344C73.2433 111.995 75.5907 111.672 78.248 111.316C74.0873 119.36 70.0718 127.128 65.9968 135C59.7525 128.565 53.6006 122.228 47.5871 116.03C49.097 115.78 51.1015 115.49 53.0863 115.074C53.4621 114.995 54.016 114.388 54.0028 114.039C53.8907 109.826 54.1808 105.658 55.005 101.524C55.0314 101.399 54.9721 101.254 54.9325 101.01C50.9103 100.324 47.1783 98.8733 43.7957 96.5391C35.5271 90.8158 31.2016 80.1668 33.2325 70.4608C35.4414 59.8845 43.4198 51.9786 53.7324 50.0268C60.4185 48.7674 66.6166 49.9675 72.373 53.5017C73.3884 54.1281 74.0082 54.2204 74.6742 53.1325C75.0632 52.4929 75.6501 51.9786 76.3226 51.2005C77.16 54.5765 77.9447 57.7349 78.7228 60.8933C78.9865 61.9549 79.1909 63.0363 79.5008 64.0847C79.8371 65.2188 79.4942 65.7265 78.2942 65.6474C74.8258 65.41 71.3509 65.199 67.8826 64.9682C67.0254 64.9089 66.1748 64.8166 65.0737 64.7111C65.9309 63.6297 66.7089 62.6604 67.5595 61.5988C65.6869 60.1746 63.6231 59.4625 61.4735 59.113C51.0818 57.4118 41.923 65.3968 42.134 75.9139C42.2923 83.9846 49.097 91.1982 57.1348 91.8839C58.1766 91.9697 58.5393 91.4422 58.9415 90.6641C64.6385 79.7317 73.217 72.0038 84.8879 67.9816C111.889 58.6712 140.078 75.3534 145.28 102.658C147.845 116.103 144.924 128.38 136.768 139.385C136.543 139.689 136.339 140.012 136.141 140.335C136.102 140.394 136.154 140.513 136.187 140.763L136.154 140.77Z" fill="white"/>
</svg>
